<svg aria-hidden="true" style="position: absolute; width: 0; height: 0; overflow: hidden;" version="1.1" xmlns="http://www.w3.org/2000/svg" xmlns:xlink="http://www.w3.org/1999/xlink">
<defs>
<symbol id="icon-line" viewBox="0 0 32 32">
    <path fill="#95e1d3" style="fill: var(--color1, #95e1d3)" d="M30.5 32h-29c-0.828 0-1.5-0.672-1.5-1.5v0-29c0-0.828 0.672-1.5 1.5-1.5v0h29c0.828 0 1.5 0.672 1.5 1.5v0 29c0 0.828-0.672 1.5-1.5 1.5v0zM29 3h-26v26h26zM5.215 16.238l4-2.5c0.223-0.14 0.494-0.223 0.785-0.223 0.314 0 0.605 0.097 0.845 0.263l-0.005-0.003 0.006-0.008 6.63 4.42 7.639-5.391c0.24-0.17 0.538-0.271 0.86-0.271 0.828 0 1.5 0.672 1.5 1.5 0 0.488-0.233 0.921-0.593 1.195l-0.004 0.003-8.5 6c-0.243 0.179-0.548 0.286-0.878 0.286-0.323 0-0.622-0.103-0.866-0.277l0.005 0.003-6.657-4.438-3.135 1.96c-0.221 0.135-0.488 0.215-0.774 0.215-0.828 0-1.5-0.672-1.5-1.5 0-0.508 0.252-0.957 0.639-1.228l0.005-0.003z"></path>
</symbol>
<symbol id="icon-ok" viewBox="0 0 37 32">
    <path fill="#95e1d3" style="fill: var(--color1, #95e1d3)" d="M34.286 26.286h-10.857v2.857l2.286 2.286v0.571h-14.857v-0.571l2.286-2.286v-2.857h-10.857c-0.947 0-1.714-0.767-1.714-1.714v0-22.857c0-0.947 0.768-1.714 1.714-1.714v0h32c0.947 0 1.714 0.767 1.714 1.714v0 22.857c0 0.947-0.767 1.714-1.714 1.714v0zM33.714 2.286h-30.857v19.429h30.857zM14.857 10.286c0.473 0 0.903 0.192 1.211 0.502l1.074 1.074 3.36-3.36c0.313-0.33 0.755-0.536 1.245-0.536 0.947 0 1.714 0.768 1.714 1.714 0 0.49-0.206 0.932-0.536 1.245l-0.001 0.001-4.571 4.571c-0.31 0.312-0.739 0.504-1.213 0.504s-0.903-0.193-1.213-0.504l-2.286-2.286c-0.31-0.31-0.501-0.738-0.501-1.211 0-0.947 0.768-1.714 1.714-1.714 0 0 0.001 0 0.001 0h-0z"></path>
</symbol>
<symbol id="icon-image" viewBox="0 0 32 32">
    <path fill="#95e1d3" style="fill: var(--color1, #95e1d3)" d="M30.5 32h-29c-0.828 0-1.5-0.672-1.5-1.5v0-29c0-0.828 0.672-1.5 1.5-1.5v0h29c0.828 0 1.5 0.672 1.5 1.5v0 29c0 0.828-0.672 1.5-1.5 1.5v0zM29 3h-26v26h26zM12 4.5c0.828 0 1.5 0.672 1.5 1.5s-0.672 1.5-1.5 1.5v0h-4.5v4.5c0 0.828-0.672 1.5-1.5 1.5s-1.5-0.672-1.5-1.5v0-7.5zM4.5 20c0-0.828 0.672-1.5 1.5-1.5s1.5 0.672 1.5 1.5v0 4.5h4.5c0.828 0 1.5 0.672 1.5 1.5s-0.672 1.5-1.5 1.5v0h-7.5zM20 4.5h7.5v7.5c0 0.828-0.672 1.5-1.5 1.5s-1.5-0.672-1.5-1.5v0-4.5h-4.5c-0.828 0-1.5-0.672-1.5-1.5s0.672-1.5 1.5-1.5v0zM20 24.5h4.5v-4.5c0-0.828 0.672-1.5 1.5-1.5s1.5 0.672 1.5 1.5v0 7.5h-7.5c-0.828 0-1.5-0.672-1.5-1.5s0.672-1.5 1.5-1.5v0z"></path>
</symbol>
<symbol id="icon-home" viewBox="0 0 33 32">
    <path fill="#95e1d3" style="fill: var(--color1, #95e1d3)" d="M33.032 17.032c0 0.855-0.693 1.548-1.548 1.548v0c-0.408-0.001-0.779-0.16-1.054-0.42l0.001 0.001-0.003 0.004-13.912-13.911-13.88 13.88c-0.28 0.278-0.666 0.45-1.092 0.45-0.855 0-1.548-0.693-1.548-1.548 0-0.441 0.184-0.839 0.48-1.121l0.001-0.001 14.922-14.924c0.282-0.292 0.677-0.475 1.115-0.475h0.002c0.028 0 0.055 0 0.083 0.002h0.012c0.033 0.003 0.059 0.005 0.084 0.008l-0.010-0.001c0.379 0.041 0.716 0.219 0.963 0.483l6.093 6.090v-1.421c0-0.855 0.693-1.548 1.548-1.548s1.548 0.693 1.548 1.548v0 4.519l5.779 5.779-0.004 0.004c0.258 0.277 0.419 0.645 0.419 1.053zM29.935 19.613v10.839c0 0.855-0.693 1.548-1.548 1.548v0h-3.097v-12.387h-6.194v12.387h-14.452c-0.855 0-1.548-0.693-1.548-1.548v0-10.839l13.419-13.419zM13.935 19.613h-6.194v6.194h6.194z"></path>
</symbol>
<symbol id="icon-book" viewBox="0 0 32 32">
    <path fill="#95e1d3" style="fill: var(--color1, #95e1d3)" d="M31.065 25.89l-14.471 5.987c-0.175 0.078-0.379 0.123-0.594 0.123s-0.419-0.045-0.604-0.127l0.010 0.004-14.47-5.987c-0.554-0.229-0.936-0.765-0.936-1.39 0-0 0-0 0-0v0-23c0.001-0.828 0.672-1.499 1.5-1.499 0.207 0 0.404 0.042 0.583 0.117l-0.010-0.004 0.003 0.001 0.013 0.005 13.911 5.755 13.928-5.762c0.169-0.072 0.366-0.113 0.572-0.113 0.828 0 1.5 0.671 1.5 1.499v23c0 0 0 0 0 0 0 0.625-0.382 1.16-0.925 1.386l-0.010 0.004zM14.5 8.502l-11.5-4.759v19.754l11.5 4.759zM29 3.743l-11.5 4.76v19.753l11.5-4.76zM19.88 10.634l5.5-2.5c0.177-0.080 0.385-0.126 0.603-0.126 0.828 0 1.5 0.672 1.5 1.5 0 0.597-0.348 1.112-0.852 1.353l-0.009 0.004-5.5 2.5c-0.177 0.080-0.385 0.126-0.603 0.126-0.828 0-1.5-0.672-1.5-1.5 0-0.597 0.348-1.112 0.852-1.353l0.009-0.004zM19.88 16.134l5.5-2.5c0.182-0.085 0.396-0.135 0.621-0.135 0.828 0 1.499 0.671 1.499 1.499 0 0 0 0 0 0.001v-0c0 0 0 0 0 0 0 0.604-0.357 1.124-0.871 1.362l-0.009 0.004-5.5 2.5c-0.172 0.074-0.372 0.118-0.582 0.118-0.828 0-1.5-0.672-1.5-1.5 0-0.589 0.339-1.098 0.833-1.344l0.009-0.004zM19.88 21.634l5.5-2.5c0.177-0.080 0.385-0.126 0.603-0.126 0.828 0 1.5 0.672 1.5 1.5 0 0.597-0.348 1.112-0.852 1.353l-0.009 0.004-5.5 2.5c-0.177 0.080-0.385 0.126-0.603 0.126-0.828 0-1.5-0.672-1.5-1.5 0-0.597 0.348-1.112 0.852-1.353l0.009-0.004zM6 8c0.221 0 0.431 0.048 0.62 0.134l5.5 2.5c0.508 0.248 0.851 0.76 0.851 1.352 0 0.828-0.672 1.5-1.5 1.5-0.214 0-0.417-0.045-0.601-0.125l0.010 0.004-5.5-2.5c-0.522-0.242-0.878-0.762-0.878-1.365 0-0.828 0.67-1.499 1.498-1.5h0zM6 13.5c0.221 0 0.431 0.048 0.62 0.134l5.5 2.5c0.547 0.232 0.924 0.764 0.924 1.385 0 0.828-0.672 1.5-1.5 1.5-0.242 0-0.471-0.057-0.673-0.159l0.009 0.004v0.001l-5.5-2.5c-0.522-0.242-0.878-0.762-0.878-1.365 0-0.828 0.67-1.499 1.498-1.5h0zM6 19c0.221 0 0.431 0.048 0.62 0.134l5.5 2.5c0.508 0.248 0.851 0.76 0.851 1.352 0 0.828-0.672 1.5-1.5 1.5-0.214 0-0.417-0.045-0.601-0.125l0.010 0.004-5.5-2.5c-0.522-0.242-0.878-0.762-0.878-1.365 0-0.828 0.67-1.499 1.498-1.5h0z"></path>
</symbol>
<symbol id="icon-alarm" viewBox="0 0 33 32">
    <path fill="#95e1d3" style="fill: var(--color1, #95e1d3)" d="M31.732 9.81c-1.675-3.835-4.673-6.833-8.405-8.468l-0.104-0.041c1.032-0.812 2.331-1.301 3.746-1.301 3.349 0 6.063 2.715 6.063 6.063v0c0 0.001 0 0.002 0 0.004 0 1.419-0.49 2.724-1.31 3.755l0.009-0.012zM31.484 16.516c0 3.976-1.561 7.58-4.091 10.261l2.094 2.093c0.267 0.275 0.431 0.651 0.431 1.065 0 0.845-0.685 1.531-1.531 1.531-0.414 0-0.79-0.164-1.065-0.431l0 0-2.25-2.248c-2.381 1.687-5.345 2.697-8.545 2.697-0.004 0-0.008 0-0.012 0h0.001c-0.004 0-0.008 0-0.012 0-3.194 0-6.153-1.006-8.577-2.718l0.047 0.031-2.233 2.233c-0.283 0.299-0.682 0.485-1.125 0.485-0.855 0-1.548-0.693-1.548-1.548 0-0.443 0.186-0.842 0.483-1.124l0.001-0.001 2.076-2.077c-2.522-2.68-4.078-6.279-4.078-10.248 0-8.266 6.701-14.968 14.968-14.968s14.968 6.701 14.968 14.968zM16.516 4.645c-6.556 0-11.871 5.314-11.871 11.871 0 6.556 5.315 11.871 11.871 11.871s11.871-5.316 11.871-11.871c0-6.557-5.316-11.871-11.871-11.871zM22.71 18.065h-6.194c-0.855 0-1.548-0.693-1.548-1.548v0-8.258c0-0.855 0.693-1.548 1.548-1.548s1.548 0.693 1.548 1.548v0 6.71h4.645c0.855 0 1.548 0.693 1.548 1.548s-0.693 1.548-1.548 1.548v0zM1.329 10.018c-0.828-1.040-1.329-2.372-1.329-3.821 0-0.001 0-0.002 0-0.004v0c0-3.421 2.773-6.194 6.194-6.194v0c1.445 0 2.772 0.499 3.826 1.329-3.917 1.711-6.979 4.773-8.649 8.583l-0.042 0.107z"></path>
</symbol>
</defs>
</svg>
